# xmcd CD database file
#
# Track frame offsets:
#	150
#	30873
#	46411
#	70083
#	95334
#	134507
#	160041
#	189015
#	223888
#	256784
#	281224
#
# Disc length: 4202 seconds
#
# Revision: 0
# Processed by: cddbd v1.5.2PL0 Copyright (c) Steve Scherf et al.
# Submitted via: CDex 1.51
#
DISCID=9310680b
DTITLE=BODDY PARKER - Carlos Santana Presents - Blues At Montreux
DYEAR=2004
DGENRE=Blues
TTITLE0=Straight Up No Chaser
TTITLE1=Break It Up
TTITLE2=Breaking Up Someboody's Home
TTITLE3=Nothing But The Blues
TTITLE4=So Glad I Found You
TTITLE5=I Ain't Superstitious
TTITLE6=It's Unfair
TTITLE7=Going Down Slow
TTITLE8=Chill Out(Feat. Carlos Santana)
TTITLE9=Mellow Down Easy(Feat. Carlos Santana)
TTITLE10=Watch Your Step(Feat. Carlos Santana)
EXTD=YEAR: 2004
EXTT0=
EXTT1=
EXTT2=
EXTT3=
EXTT4=
EXTT5=
EXTT6=
EXTT7=
EXTT8=
EXTT9=
EXTT10=
PLAYORDER=
